<svg width="16" height="15" viewBox="0 0 16 15" fill="none" xmlns="http://www.w3.org/2000/svg">
<path fill-rule="evenodd" clip-rule="evenodd" d="M0.418765 1.54661C0.0340956 2.21095 -0.0913672 2.99407 0.0665055 3.74533C0.224378 4.4966 0.654438 5.16297 1.27398 5.61629C1.89351 6.06961 2.65878 6.27787 3.4226 6.20101C4.18642 6.12415 4.89485 5.76761 5.41165 5.19994L6.19654 5.65327C6.21876 5.73505 6.32721 5.75639 6.38321 5.6915C6.51713 5.53446 6.66528 5.39105 6.82765 5.26127C7.08188 5.05683 7.09432 4.63105 6.81165 4.46839L6.07832 4.04439C6.30766 3.3141 6.2598 2.52491 5.9439 1.82769C5.628 1.13046 5.06622 0.574121 4.36596 0.26502C3.66569 -0.0440815 2.87608 -0.084258 2.14806 0.152171C1.42004 0.3886 0.804689 0.885049 0.419654 1.54661M2.2241 4.64172C2.02028 4.52584 1.8414 4.37079 1.69776 4.18549C1.55411 4.0002 1.44853 3.78832 1.3871 3.56206C1.32567 3.3358 1.30961 3.09962 1.33983 2.86712C1.37005 2.63462 1.44596 2.4104 1.56319 2.20736C1.68041 2.00432 1.83665 1.82647 2.02289 1.68405C2.20913 1.54164 2.42171 1.43747 2.64837 1.37754C2.87504 1.31762 3.11132 1.30312 3.34361 1.33488C3.5759 1.36664 3.79962 1.44403 4.00188 1.56261C4.40687 1.80003 4.70151 2.188 4.8215 2.64186C4.94149 3.09572 4.8771 3.57862 4.64236 3.98518C4.40763 4.39173 4.02162 4.68894 3.56857 4.81194C3.11552 4.93494 2.6322 4.87375 2.2241 4.64172ZM7.96276 5.61061C7.61968 5.75523 7.31416 5.97632 7.06953 6.257C6.8249 6.53768 6.64761 6.87054 6.55121 7.23016L6.19743 8.55105L5.41165 9.00438C4.8939 8.43996 4.18619 8.0863 3.42397 8.01109C2.66176 7.93587 1.89857 8.14438 1.28049 8.59672C0.662403 9.04906 0.23284 9.71344 0.0740121 10.4627C-0.0848154 11.212 0.0382499 11.9935 0.419654 12.6577C0.803045 13.3223 1.4185 13.8218 2.14779 14.0602C2.87707 14.2987 3.66873 14.2592 4.37067 13.9494C5.07262 13.6396 5.63532 13.0813 5.95069 12.3819C6.26605 11.6824 6.31182 10.8911 6.07921 10.1599L15.5725 4.67905C15.6864 4.61294 15.7782 4.51458 15.8363 4.39638C15.8943 4.27817 15.9161 4.14542 15.8988 4.01486C15.8815 3.88431 15.8259 3.76181 15.739 3.66281C15.6522 3.56382 15.538 3.49276 15.4108 3.45861L14.7859 3.29061C14.261 3.15019 13.7043 3.18866 13.2037 3.39994L7.96276 5.61061ZM1.57343 11.9911C1.45486 11.7888 1.37746 11.5651 1.3457 11.3328C1.31394 11.1005 1.32844 10.8642 1.38837 10.6375C1.44829 10.4109 1.55246 10.1983 1.69488 10.0121C1.83729 9.82582 2.01514 9.66959 2.21818 9.55236C2.42122 9.43513 2.64545 9.35922 2.87794 9.329C3.11044 9.29878 3.34662 9.31485 3.57288 9.37628C3.79915 9.43771 4.01102 9.54328 4.19632 9.68693C4.38161 9.83058 4.53666 10.0095 4.65254 10.2133C4.88457 10.6214 4.94576 11.1047 4.82276 11.5577C4.69976 12.0108 4.40255 12.3968 3.996 12.6315C3.58944 12.8663 3.10655 12.9307 2.65269 12.8107C2.19883 12.6907 1.81085 12.396 1.57343 11.9911Z" fill="white"/>
<path d="M10.2419 8.78234C10.1702 8.82369 10.1115 8.88424 10.0724 8.95717C10.0332 9.0301 10.0152 9.1125 10.0204 9.1951C10.0256 9.2777 10.0537 9.35722 10.1016 9.42469C10.1496 9.49217 10.2154 9.54492 10.2917 9.577L13.2019 10.8046C13.7025 11.0158 14.2592 11.0543 14.7841 10.9139L15.4099 10.7459C15.537 10.7115 15.651 10.6403 15.7377 10.5412C15.8243 10.4421 15.8797 10.3195 15.8968 10.189C15.9139 10.0585 15.892 9.92582 15.8338 9.80773C15.7757 9.68964 15.6838 9.59142 15.5699 9.52545L12.4854 7.74411C12.4179 7.70511 12.3412 7.68457 12.2632 7.68457C12.1852 7.68457 12.1086 7.70511 12.041 7.74411L10.2419 8.78234Z" fill="white"/>
</svg>
